<svg version="1.1" id="Layer_1" xmlns="http://www.w3.org/2000/svg" xmlns:xlink="http://www.w3.org/1999/xlink" x="0px" y="0px"
	 width="100%" viewBox="0 0 496 496" enable-background="new 0 0 496 496" xml:space="preserve">
<path fill="#000000" opacity="1.000000" stroke="none" 
	d="
M272.637238,287.596680 
	C267.598877,287.422089 263.115143,285.769928 258.379425,286.235718 
	C256.441376,286.426300 254.429047,285.434784 253.641403,283.879913 
	C248.786209,274.295258 238.940872,271.667999 230.603195,266.925629 
	C229.024765,266.027832 225.972214,265.610962 227.472839,263.013916 
	C228.774445,260.761322 231.122162,262.470825 232.769455,263.413605 
	C236.361664,265.469482 239.822021,267.480774 244.049622,268.378082 
	C248.322922,269.285126 250.628876,273.301392 252.981339,276.721558 
	C255.295303,280.085724 257.804840,282.637115 262.361176,281.806793 
	C263.276306,281.640015 264.313995,282.103394 265.288116,282.309601 
	C272.238190,283.780823 272.276672,283.796997 274.567505,277.125732 
	C275.836304,273.431000 278.170410,270.391327 280.325226,267.230713 
	C287.870422,256.163544 287.511322,251.353745 278.311981,241.221252 
	C273.657440,244.217087 269.941895,247.946655 267.333923,253.007645 
	C264.599518,258.314026 262.207825,258.278320 259.430511,253.172012 
	C257.329376,249.308899 254.678833,246.154419 251.299332,243.269516 
	C243.830704,236.894028 243.200333,228.822830 246.955795,220.237167 
	C240.877975,214.389175 240.165771,211.016510 243.491959,203.973526 
	C237.430344,204.742691 231.651749,205.806427 227.738541,211.209061 
	C226.256989,213.254471 223.879608,214.144089 221.495621,213.360413 
	C218.300354,212.310028 216.411407,213.839172 214.666779,216.011566 
	C212.478561,218.736313 210.307632,221.477509 208.213577,224.274734 
	C204.980896,228.592911 201.342087,232.045792 196.020126,234.089844 
	C187.479660,237.370071 181.892242,246.626892 190.108749,255.074417 
	C193.039795,258.087860 194.069366,262.252808 194.395569,266.556396 
	C194.923279,273.518402 198.575012,275.159302 204.233337,271.131073 
	C208.725525,267.933014 213.325638,264.921387 218.557556,263.070770 
	C220.052521,262.541962 222.065994,261.686523 222.897354,263.818024 
	C223.681122,265.827515 221.639526,266.186768 220.319626,266.730957 
	C215.199829,268.841705 210.594940,271.796814 206.099945,275.001282 
	C198.656250,280.307953 192.055679,277.496826 190.625137,268.480469 
	C189.938568,264.153259 189.038528,259.889618 186.097031,256.488342 
	C177.442123,246.480652 183.172318,235.450638 191.461548,231.931351 
	C199.583176,228.483231 204.336868,222.345367 209.272934,215.870728 
	C212.513718,211.619781 215.664795,207.082596 222.365555,209.355530 
	C224.071640,209.934250 225.388641,208.111237 226.360214,206.800705 
	C231.143555,200.348557 238.391754,200.352570 245.240051,199.837555 
	C248.800766,199.569794 250.103897,202.445511 248.451126,205.666016 
	C247.700516,207.128616 246.269180,208.243225 246.142975,210.025528 
	C246.010727,211.893295 246.064758,213.725418 247.807816,214.970612 
	C249.509415,216.186188 250.835342,215.139038 252.385422,214.420868 
	C256.381989,212.569153 259.359741,210.388535 259.103729,205.214752 
	C258.989288,202.901794 259.978333,200.025589 263.215576,199.789993 
	C266.569031,199.545914 268.206512,201.992355 268.502716,204.703506 
	C269.059937,209.803604 271.664551,213.147476 275.807495,215.823227 
	C277.915771,217.184891 279.171478,219.502914 280.137207,221.837219 
	C280.642242,223.057953 281.235809,224.626282 279.775238,225.447189 
	C277.912933,226.493896 277.212494,224.855225 276.476868,223.502869 
	C273.532379,218.089691 269.232239,214.982056 262.792328,215.265793 
	C256.895935,215.525620 252.634796,218.112503 250.261337,223.569473 
	C247.937424,228.912506 248.760376,235.816513 253.050079,239.267639 
	C257.112305,242.535812 260.670593,246.034103 263.563507,252.200455 
	C266.046387,242.452499 276.746643,240.386200 277.895569,231.106644 
	C278.011627,230.169296 278.863220,229.811890 279.791504,229.897308 
	C281.057526,230.013855 281.516693,230.954117 281.440918,231.993759 
	C281.057831,237.250580 283.949432,241.074051 286.716888,245.099670 
	C290.673584,250.855164 290.341248,257.124329 287.433624,263.142059 
	C285.561432,267.016846 282.987366,270.556061 280.681763,274.216583 
	C279.063232,276.786224 277.695923,279.489777 277.482452,282.530548 
	C277.275055,285.485413 276.036377,287.217865 272.637238,287.596680 
z"/>
<path fill="#000000" opacity="1.000000" stroke="none" 
	d="
M395.049500,255.610886 
	C392.080719,248.844376 392.467651,242.598740 396.110016,236.647247 
	C397.846558,233.809814 400.448364,231.762329 403.872528,231.960480 
	C407.608582,232.176666 410.333679,234.441711 412.091980,237.732666 
	C412.793518,239.045746 413.637329,240.583771 411.935944,241.725510 
	C410.365692,242.779236 409.157776,241.998077 408.194885,240.549423 
	C406.907440,238.612564 405.615662,236.215530 402.821716,236.967606 
	C399.955566,237.739120 399.036560,240.427612 398.177643,243.029236 
	C397.138214,246.177521 397.121735,249.228073 398.467407,252.277740 
	C399.601807,254.848511 401.060913,257.079987 404.297028,256.834900 
	C407.842834,256.566437 408.715759,253.947235 409.299377,251.399170 
	C408.588440,250.150833 407.729553,250.135681 406.926819,249.947403 
	C405.258667,249.556198 402.687988,249.864502 403.212524,247.129852 
	C403.647400,244.862534 405.984528,245.114273 407.782196,245.082794 
	C413.721313,244.978851 415.272430,247.013214 413.731720,252.789719 
	C412.543121,257.246246 410.372162,260.817200 405.380035,261.660278 
	C400.496582,262.485046 397.604309,259.658447 395.049500,255.610886 
z"/>
<path fill="#000000" opacity="1.000000" stroke="none" 
	d="
M113.135147,257.677643 
	C115.787918,258.194183 119.694786,256.406830 119.777351,259.727203 
	C119.875992,263.693481 115.764374,262.141449 113.444984,262.192322 
	C102.711609,262.427612 102.702766,262.334564 102.669640,251.348785 
	C102.654587,246.359024 102.729630,241.368301 102.654694,236.379654 
	C102.607704,233.251404 104.046654,231.746796 107.132820,231.743790 
	C110.126549,231.740875 113.121384,231.696686 116.113571,231.765228 
	C117.765877,231.803101 119.792984,231.794952 119.900826,234.033401 
	C120.018707,236.480118 117.894043,236.223923 116.284958,236.304703 
	C114.625359,236.388016 112.956497,236.407181 111.296654,236.337006 
	C108.716469,236.227966 107.227974,237.018005 107.240608,239.975296 
	C107.252121,242.666809 108.187035,244.086014 110.984978,243.983826 
	C111.315872,243.971741 111.658401,243.975906 111.979424,244.046188 
	C113.660812,244.414291 116.118813,244.001389 115.995972,246.654648 
	C115.891975,248.900803 113.668785,248.645554 112.104630,248.852585 
	C109.803429,249.157181 107.492470,248.904648 107.241280,252.409729 
	C106.936234,256.666199 108.636543,258.225006 113.135147,257.677643 
z"/>
<path fill="#000000" opacity="1.000000" stroke="none" 
	d="
M27.141813,260.353516 
	C21.383013,263.334045 15.873253,262.876251 13.104154,259.396179 
	C11.922060,257.910553 10.894530,256.129395 12.723853,254.550827 
	C14.400397,253.104065 15.340644,254.787155 16.292358,255.910965 
	C18.023287,257.954865 20.279743,258.247772 22.650822,257.540436 
	C24.386875,257.022583 25.553146,255.635208 25.376860,253.802261 
	C25.141685,251.356995 23.175058,250.246048 21.135588,249.337753 
	C18.711960,248.258377 16.118412,247.493240 14.071674,245.696228 
	C11.143202,243.125046 10.899009,239.780151 12.286374,236.573090 
	C13.923294,232.789169 17.385700,231.342148 21.348494,231.889603 
	C24.815792,232.368607 27.586407,234.165009 28.722422,237.775925 
	C29.053732,238.829041 28.913317,239.764618 27.857918,240.340515 
	C26.823736,240.904846 25.930561,240.574631 25.196188,239.756470 
	C24.866369,239.389023 24.645525,238.926086 24.336639,238.537125 
	C22.841187,236.654099 20.933914,235.828674 18.617853,236.705063 
	C17.118502,237.272430 16.155485,238.473953 16.259949,240.174789 
	C16.407137,242.571198 18.314636,243.429901 20.141180,244.272079 
	C21.347548,244.828308 22.631733,245.215378 23.839808,245.768356 
	C30.837158,248.971252 32.015663,253.677429 27.141813,260.353516 
z"/>
<path fill="#000000" opacity="1.000000" stroke="none" 
	d="
M310.685150,231.854584 
	C317.803101,233.677689 320.502258,236.115402 320.114227,240.665085 
	C319.667694,245.900635 316.199188,248.528946 311.317505,249.329025 
	C308.246765,249.832321 307.031860,251.388535 307.302887,254.413605 
	C307.435455,255.893692 307.328552,257.398163 307.284607,258.890259 
	C307.242645,260.314545 306.886444,261.629730 305.139313,261.636749 
	C303.767029,261.642242 302.967712,260.651764 302.936035,259.393555 
	C302.735748,251.440857 302.237640,243.455475 303.222107,235.550171 
	C303.700714,231.706848 307.125824,231.594757 310.685150,231.854584 
M307.572357,244.316742 
	C309.942505,246.749298 311.740753,244.401016 313.557617,243.446335 
	C315.052368,242.660919 316.180084,241.170959 315.261871,239.356323 
	C314.110229,237.080338 311.974792,236.240021 309.501251,236.446945 
	C307.119690,236.646164 307.400421,238.544998 307.361206,240.156830 
	C307.333344,241.301712 307.395050,242.448776 307.572357,244.316742 
z"/>
<path fill="#000000" opacity="1.000000" stroke="none" 
	d="
M483.255005,260.452087 
	C480.501678,262.408936 477.652405,262.149078 474.643799,262.047302 
	C474.487030,263.938721 474.390869,265.564392 474.206055,267.179932 
	C474.063446,268.426727 473.477356,269.485291 472.108917,269.565552 
	C470.378540,269.666992 469.794800,268.372803 469.780640,266.964264 
	C469.712189,260.164917 469.720886,253.364609 469.735931,246.564713 
	C469.738312,245.487732 470.310272,244.672791 471.334808,244.264694 
	C474.594452,242.966415 483.601868,245.502411 485.448792,248.225052 
	C488.180786,252.252304 487.639587,255.699875 483.255005,260.452087 
M477.775635,249.293030 
	C475.007416,250.304138 473.639435,252.109711 475.006500,255.001694 
	C475.734711,256.542206 477.110870,257.710083 479.012207,257.211090 
	C480.890869,256.718079 482.414734,255.452850 482.451355,253.431580 
	C482.495941,250.968842 481.061615,249.459213 477.775635,249.293030 
z"/>
<path fill="#000000" opacity="1.000000" stroke="none" 
	d="
M88.899727,256.721985 
	C88.430313,258.933105 89.004868,261.829041 86.123863,261.506378 
	C83.584183,261.222015 83.938011,258.536407 83.922981,256.598846 
	C83.873978,250.281082 83.854385,243.961594 83.961243,237.645081 
	C83.992699,235.785248 83.460281,232.982681 86.208916,232.877518 
	C89.366768,232.756668 88.099846,235.708069 88.361000,237.455826 
	C88.531265,238.595261 88.472931,239.783218 88.399002,240.941910 
	C88.221260,243.727570 89.460648,244.607468 92.240952,244.721741 
	C98.104660,244.962753 102.985329,255.385178 99.789383,260.464172 
	C99.326408,261.199951 98.698349,261.760529 97.768867,261.618347 
	C96.651573,261.447357 95.997246,260.669647 95.890640,259.600555 
	C95.726089,257.950378 95.800117,256.274902 95.608231,254.629379 
	C95.343719,252.361053 95.416229,249.489700 92.188042,249.523056 
	C89.323669,249.552658 89.145515,252.089523 88.997406,254.309540 
	C88.953156,254.972839 88.946106,255.638626 88.899727,256.721985 
z"/>
<path fill="#000000" opacity="1.000000" stroke="none" 
	d="
M253.170807,234.444565 
	C250.352127,225.010864 256.285492,216.943161 264.674042,218.205536 
	C269.605713,218.947678 273.575165,222.612045 274.262115,227.056641 
	C275.148560,232.791992 272.987671,237.381912 268.348999,239.616562 
	C263.649750,241.880371 258.805359,241.016815 255.127960,237.195190 
	C254.443665,236.484055 253.940598,235.598541 253.170807,234.444565 
M269.606079,225.924789 
	C266.019775,222.045517 262.407043,221.153946 259.339996,223.567871 
	C256.234161,226.012329 255.216324,229.256119 257.151337,232.770920 
	C258.904144,235.954742 261.783966,237.440384 265.506409,236.140640 
	C269.555939,234.726700 270.988617,231.536575 269.606079,225.924789 
z"/>
<path fill="#000000" opacity="1.000000" stroke="none" 
	d="
M134.120972,261.479919 
	C129.655823,262.795532 126.502213,261.286774 124.155884,258.041077 
	C121.995285,255.052231 122.050087,251.734314 123.879135,248.627060 
	C125.851974,245.275513 128.921051,244.162567 132.816132,244.542236 
	C140.105164,245.252686 140.119919,245.144119 140.128067,252.409760 
	C140.129929,254.074997 140.053101,255.740906 140.080536,257.405396 
	C140.146927,261.433228 138.427856,262.940216 134.120972,261.479919 
M133.843201,256.043213 
	C135.260452,253.848618 135.512405,251.604630 133.313446,249.884277 
	C131.714340,248.633240 129.810455,248.960632 128.361435,250.407791 
	C126.889793,251.877533 126.832573,253.795044 127.828110,255.436874 
	C129.143936,257.606964 131.106949,258.057526 133.843201,256.043213 
z"/>
<path fill="#000000" opacity="1.000000" stroke="none" 
	d="
M155.844696,248.669174 
	C154.594147,251.033524 153.179993,250.514389 151.675354,249.375961 
	C150.275497,248.316803 148.819687,247.727997 147.045303,249.294403 
	C147.754333,251.376724 149.645782,251.364960 151.309906,251.818375 
	C154.258606,252.621811 156.675201,254.152512 156.079987,257.666107 
	C155.526123,260.935699 153.042938,262.162018 149.915237,262.299957 
	C144.132706,262.554962 141.433578,259.443634 142.371429,253.601562 
	C142.448349,253.122406 142.531433,252.588272 142.401520,252.140671 
	C141.274536,248.258179 142.688568,245.431564 146.403000,244.334808 
	C150.391525,243.157089 153.929443,244.124542 155.844696,248.669174 
z"/>
<path fill="#000000" opacity="1.000000" stroke="none" 
	d="
M453.830688,244.303650 
	C456.574738,244.508606 456.352325,246.294632 456.383484,247.978165 
	C456.417267,249.803452 456.337372,251.660507 456.653717,253.442169 
	C456.939789,255.053467 457.491119,256.856659 459.741089,256.664185 
	C461.732208,256.493805 462.571167,255.068115 462.804291,253.273376 
	C463.103882,250.966568 463.251617,248.639877 463.557312,246.334045 
	C463.696777,245.282120 464.324432,244.435120 465.452606,244.299133 
	C466.902435,244.124420 467.704315,245.168228 467.862610,246.327148 
	C468.472321,250.791611 468.401825,255.287277 467.981140,259.767487 
	C467.883148,260.811188 466.933380,262.119385 466.156525,261.806732 
	C462.141022,260.190796 456.995117,263.717133 453.705322,258.967926 
	C451.213684,255.370926 451.027466,248.388550 453.830688,244.303650 
z"/>
<path fill="#000000" opacity="1.000000" stroke="none" 
	d="
M363.231140,255.114105 
	C363.252625,256.216705 363.313507,256.887543 363.254883,257.547699 
	C363.100006,259.291748 363.537262,261.705322 360.819244,261.549866 
	C358.631622,261.424713 358.807983,259.301056 358.692169,257.644318 
	C358.565155,255.826904 358.559326,253.977173 358.185059,252.208313 
	C357.876007,250.747543 357.164825,249.243484 355.218658,249.439041 
	C353.495728,249.612167 352.530304,250.820160 352.294250,252.405945 
	C351.952454,254.702362 351.905029,257.041260 351.614990,259.347290 
	C351.459900,260.580597 350.748016,261.672455 349.413940,261.683685 
	C348.079407,261.694916 347.279846,260.589844 347.157837,259.387604 
	C346.720795,255.081146 346.609619,250.755905 347.216125,246.453384 
	C347.357147,245.452805 347.959351,244.629379 349.028015,244.268829 
	C355.265930,242.164459 361.405029,245.668533 362.879822,252.207794 
	C363.061920,253.015228 363.107300,253.853485 363.231140,255.114105 
z"/>
<path fill="#000000" opacity="1.000000" stroke="none" 
	d="
M41.494148,244.553223 
	C46.466965,245.928741 48.868317,249.040970 48.625134,253.763214 
	C48.429729,257.557678 46.302422,260.207275 42.597279,261.487274 
	C38.714748,262.828583 35.756081,261.267944 33.366287,258.427307 
	C31.127338,255.766006 31.055765,252.564133 32.296925,249.500580 
	C33.865810,245.628098 37.083153,244.224960 41.494148,244.553223 
M42.414219,250.127319 
	C40.232960,248.692078 38.262703,248.924118 36.870163,251.161346 
	C35.815926,252.855087 35.888855,254.689545 37.426994,256.155090 
	C38.739330,257.405487 40.275173,257.885498 41.920906,256.723999 
	C44.283772,255.056427 44.315910,252.965836 42.414219,250.127319 
z"/>
<path fill="#000000" opacity="1.000000" stroke="none" 
	d="
M433.131592,251.405609 
	C434.573273,246.720016 437.490814,244.311798 442.011932,244.390945 
	C446.191071,244.464096 448.728699,247.076431 449.909882,250.850006 
	C451.090240,254.620819 449.465576,257.701691 446.624573,260.086334 
	C444.142303,262.169830 441.283386,262.574707 438.275238,261.105103 
	C434.380035,259.202148 432.875092,255.964233 433.131592,251.405609 
M444.705231,250.682388 
	C442.936920,248.921570 440.950745,248.547897 439.002136,250.203400 
	C437.524139,251.459000 436.777527,253.167953 438.046783,255.015305 
	C439.084015,256.524872 440.391296,258.143066 442.474060,257.221344 
	C444.979767,256.112457 446.365845,254.193192 444.705231,250.682388 
z"/>
<path fill="#000000" opacity="1.000000" stroke="none" 
	d="
M327.749939,244.699341 
	C331.318420,244.014313 334.051331,244.825104 336.176788,247.348663 
	C339.351593,251.118134 338.907440,256.713257 335.211578,259.881012 
	C331.626129,262.954041 326.373383,262.380463 323.304749,258.580811 
	C320.329010,254.896164 320.960449,249.042526 324.724335,246.107376 
	C325.490234,245.510117 326.489136,245.211578 327.749939,244.699341 
M327.560547,249.778717 
	C325.777130,251.434067 325.030609,253.332047 326.631836,255.460907 
	C327.640594,256.802063 328.960388,258.006989 330.851105,257.130981 
	C332.418762,256.404663 333.675201,255.194244 333.600433,253.329239 
	C333.460236,249.834305 331.382141,248.812485 327.560547,249.778717 
z"/>
<path fill="#000000" opacity="1.000000" stroke="none" 
	d="
M162.654678,235.761887 
	C166.136337,233.908173 166.661270,236.204071 166.853851,238.446152 
	C167.052582,240.759964 167.517380,242.425339 170.090057,243.331680 
	C172.279343,244.102982 172.951019,246.336792 170.233093,247.035339 
	C166.708679,247.941162 167.059006,250.246872 167.001984,252.718292 
	C166.952393,254.866501 166.921326,257.021210 166.717972,259.157410 
	C166.603149,260.363770 165.965561,261.452820 164.540298,261.427643 
	C163.157349,261.403259 162.482574,260.376984 162.337982,259.146240 
	C162.126236,257.344116 162.059265,255.522476 161.988098,253.706894 
	C161.874908,250.820114 162.651749,247.641403 158.226929,246.919525 
	C156.628677,246.658768 156.507767,244.319565 157.926147,243.941208 
	C162.331238,242.766068 161.600433,239.072815 162.654678,235.761887 
z"/>
<path fill="#000000" opacity="1.000000" stroke="none" 
	d="
M61.694252,250.785370 
	C61.721039,249.367752 61.715946,248.366760 61.773598,247.369400 
	C61.856663,245.932404 62.305183,244.619202 63.975849,244.551483 
	C66.089752,244.465805 66.242325,246.107468 66.288628,247.657654 
	C66.343323,249.489273 66.693100,251.419861 66.248352,253.134659 
	C65.483223,256.084686 68.833923,261.228241 63.505424,261.709808 
	C53.646210,262.600830 50.878979,260.174896 50.622574,252.546814 
	C50.561089,250.717728 50.628510,248.881180 50.710262,247.051361 
	C50.773846,245.628220 51.187656,244.274490 52.941196,244.362320 
	C54.584145,244.444595 55.090153,245.736725 55.166000,247.175400 
	C55.236118,248.505402 55.116405,249.850555 55.255234,251.170639 
	C55.481396,253.321030 54.487679,256.489258 57.986118,256.585327 
	C61.345757,256.677582 61.659969,253.846481 61.694252,250.785370 
z"/>
<path fill="#000000" opacity="1.000000" stroke="none" 
	d="
M273.702728,289.095490 
	C277.489349,290.628357 277.785675,293.032135 276.318726,296.081451 
	C273.652283,301.624023 269.779877,304.199432 265.611603,302.989777 
	C262.211090,302.002930 259.859894,299.709747 258.480988,296.510773 
	C257.068970,293.235016 259.171753,289.385986 262.597046,289.894470 
	C266.382935,290.456543 269.742157,289.112549 273.702728,289.095490 
M272.097839,294.602448 
	C269.054199,293.214294 266.174316,294.664856 263.010193,294.682404 
	C265.911041,300.206848 268.006500,300.218842 272.097839,294.602448 
z"/>
<path fill="#000000" opacity="1.000000" stroke="none" 
	d="
M68.472954,246.571167 
	C67.836754,245.467529 67.694862,244.230179 68.418449,244.029953 
	C72.191933,242.985779 73.038651,240.352448 72.971268,236.879135 
	C72.946472,235.601044 74.038132,234.841293 75.408249,234.954391 
	C76.600792,235.052826 77.200226,235.921799 77.194862,236.987274 
	C77.179085,240.124756 77.446152,242.748718 81.405724,243.617294 
	C83.167610,244.003784 83.262909,246.622253 81.455376,246.876022 
	C76.698586,247.543839 77.591919,250.798447 77.262177,253.882919 
	C76.988503,256.442780 78.950424,261.005341 75.459320,261.122955 
	C71.230118,261.265442 73.234009,256.532288 72.890755,253.892319 
	C72.496185,250.857727 73.535561,247.230850 68.472954,246.571167 
z"/>
<path fill="#000000" opacity="1.000000" stroke="none" 
	d="
M373.401672,260.777069 
	C370.479675,262.096954 369.826111,260.512848 369.720215,258.400726 
	C369.620239,256.405731 369.630585,254.402832 369.658630,252.404343 
	C369.694733,249.831665 369.929565,247.203979 366.139618,247.183777 
	C365.207947,247.178818 364.622620,246.427032 364.489044,245.562973 
	C364.314056,244.430801 364.957001,243.441544 365.984375,243.271851 
	C369.252167,242.732056 369.797607,240.619827 369.595856,237.818817 
	C369.500366,236.492874 369.561035,234.987625 371.453949,234.883881 
	C373.470154,234.773407 374.052673,236.234375 374.069000,237.817825 
	C374.096466,240.489670 374.459198,242.614365 377.608795,243.495895 
	C379.349609,243.983124 379.845673,246.426590 378.057465,246.785721 
	C372.965729,247.808258 374.418365,251.475784 374.214417,254.556885 
	C374.083435,256.536072 374.516693,258.563599 373.401672,260.777069 
z"/>
<path fill="#000000" opacity="1.000000" stroke="none" 
	d="
M428.886353,245.453140 
	C430.537109,246.696594 432.251801,247.787689 431.228729,249.684860 
	C430.078217,251.818420 428.424072,250.359421 426.911041,249.794464 
	C423.393799,248.481171 421.451935,249.825226 421.092926,253.510040 
	C420.915466,255.331451 420.907288,257.173553 420.649384,258.981567 
	C420.459351,260.313904 419.996735,261.775970 418.268127,261.636688 
	C416.648407,261.506165 416.098114,260.072601 416.061310,258.723358 
	C415.957031,254.896805 415.919006,251.060303 416.089172,247.238129 
	C416.165283,245.528030 416.922333,243.663345 419.162567,244.294464 
	C422.264801,245.168442 425.527496,243.922195 428.886353,245.453140 
z"/>
<path fill="#000000" opacity="1.000000" stroke="none" 
	d="
M342.281647,261.050232 
	C339.438232,256.395782 341.079498,251.563736 340.850220,246.882751 
	C340.798279,245.822357 341.624146,245.101059 342.767151,244.995300 
	C343.666534,244.912094 344.357178,245.305267 344.852234,246.043289 
	C345.904907,247.612686 345.337433,259.547821 344.064850,260.937378 
	C343.807312,261.218597 343.135162,261.120148 342.281647,261.050232 
z"/>
</svg>